Coordinates
version=1
nRows=17
nColumns=40
inDegrees=yes

Units are S.I. units (second, meters, Newtons, ...)
Angles are in degrees.

endheader
time	pelvis_tilt	pelvis_list	pelvis_rotation	pelvis_tx	pelvis_ty	pelvis_tz	hip_flexion_r	hip_adduction_r	hip_rotation_r	knee_angle_r	knee_angle_r_beta	ankle_angle_r	subtalar_angle_r	mtp_angle_r	hip_flexion_l	hip_adduction_l	hip_rotation_l	knee_angle_l	knee_angle_l_beta	ankle_angle_l	subtalar_angle_l	mtp_angle_l	lumbar_extension	lumbar_bending	lumbar_rotation	arm_flex_r	arm_add_r	arm_rot_r	elbow_flex_r	pro_sup_r	wrist_flex_r	wrist_dev_r	arm_flex_l	arm_add_l	arm_rot_l	elbow_flex_l	pro_sup_l	wrist_flex_l	wrist_dev_l
     51.66414286	     -5.62241919	     -4.15394788	     -4.79263814	      1.05352759	      0.93245522	      0.42644178	     39.53001922	     -4.85775564	     -4.97934840	     56.28277529	     56.28277529	      0.45604383	    -14.61460835	      0.88923919	     13.06753030	     -5.49403347	    -10.98952357	     18.47885361	     18.47885361	     11.82678390	    -12.15965334	     -5.92657169	    -13.37671190	      2.10928564	      2.24109159	      3.01344497	    -15.13346599	    -11.09944781	     29.73109508	     47.25694265	      0.00000000	      0.00000000	     17.46476429	    -15.52141018	     -5.13373368	     55.10310939	     46.92181884	      0.00000000	      0.00000000
     51.67578571	     -5.64356041	     -4.19680248	     -5.12598016	      1.05321042	      0.93230921	      0.42685588	     39.61661552	     -4.64441024	     -4.89036419	     52.92837749	     52.92837749	      0.36465247	    -13.55431222	      1.10660527	     12.35232702	     -5.51413928	    -11.17217534	     18.25141611	     18.25141611	     12.16545739	    -12.25220594	     -5.94680826	    -13.53608707	      2.35527955	      2.72752231	      1.64234656	    -15.80226118	    -11.40711193	     28.35935099	     47.31608170	      0.00000000	      0.00000000	     18.34692573	    -15.45782666	     -5.39116246	     56.63957828	     46.97484447	      0.00000000	      0.00000000
     51.68742857	     -5.71727789	     -4.19487843	     -5.44920712	      1.05293819	      0.93202776	      0.42737527	     39.58365561	     -4.48431330	     -4.92900908	     49.25883747	     49.25883747	      0.21783396	    -12.22379077	      1.24851966	     11.65760732	     -5.49435474	    -11.41506969	     17.95099274	     17.95099274	     12.49156079	    -12.23936997	     -5.97771746	    -13.62309901	      2.50492281	      3.14023914	      0.41752670	    -16.38042881	    -11.78969612	     26.83098570	     47.39249655	      0.00000000	      0.00000000	     18.99328622	    -15.41778817	     -5.64016692	     58.55856731	     47.03026379	      0.00000000	      0.00000000
     51.69907143	     -5.83983651	     -4.06908729	     -5.80640304	      1.05283609	      0.93149455	      0.42812544	     39.39129306	     -4.39715711	     -5.01835447	     45.19682537	     45.19682537	     -0.41778750	    -10.88704730	     -0.17398205	     10.98845324	     -5.37520170	    -11.83847088	     17.62951006	     17.62951006	     12.86754869	    -12.02123346	     -6.03933314	    -13.69038031	      2.44869065	      2.43306070	      1.28843476	    -16.38623584	    -14.41506874	     22.61179169	     47.75301953	      0.00000000	      0.00000000	     17.72012065	    -16.34757306	     -6.77125385	     63.85944507	     47.21117614	      0.00000000	      0.00000000
     51.71071429	     -5.93087801	     -4.00471261	     -6.04700630	      1.05294080	      0.93101486	      0.42881463	     38.96033053	     -4.31999923	     -5.37921623	     40.94631018	     40.94631018	     -0.47197311	     -8.97237212	      0.10472540	     10.24773996	     -5.28248133	    -12.10930259	     17.22291454	     17.22291454	     13.15814797	    -11.83541531	     -6.12213822	    -13.70229480	      2.50785947	      2.78048180	      0.01662557	    -16.83974370	    -14.79971984	     21.67516390	     47.81260062	      0.00000000	      0.00000000	     18.41275805	    -16.16781255	     -7.10415473	     65.35111862	     47.26930176	      0.00000000	      0.00000000
     51.72235714	     -6.07643663	     -3.91654529	     -6.24278340	      1.05329140	      0.93034793	      0.42960851	     38.35767510	     -4.23285390	     -5.87457597	     36.41454570	     36.41454570	     -0.52927847	     -6.92632139	      0.51836789	      9.53363461	     -5.16840295	    -12.38234533	     16.76863554	     16.76863554	     13.43521442	    -11.54930773	     -6.24807952	    -13.61738047	      2.57717974	      3.00078932	     -1.15768314	    -17.23609322	    -15.11690156	     20.98640962	     47.85901566	      0.00000000	      0.00000000	     18.81727840	    -16.14420558	     -7.33956145	     67.02706207	     47.31997295	      0.00000000	      0.00000000
     51.73400000	     -6.12880307	     -3.67036372	     -6.45345781	      1.05395047	      0.92952310	      0.43060083	     37.58270592	     -4.32994976	     -6.59969488	     31.91795112	     31.91795112	     -0.47765243	     -4.27145880	      0.80382442	      8.62769432	     -4.89494947	    -12.90742448	     16.17099762	     16.17099762	     13.73642156	    -10.93958765	     -6.54882633	    -13.66640012	      2.34367785	      3.14889785	     -2.29687118	    -17.43242518	    -15.82539329	     20.50230467	     47.92769954	      0.00000000	      0.00000000	     18.69062535	    -16.20917129	     -7.70528708	     70.31774467	     47.40940936	      0.00000000	      0.00000000
     51.74564286	     -6.18937009	     -3.49638744	     -6.54510583	      1.05490260	      0.92853300	      0.43164689	     36.60592386	     -4.28857662	     -7.36884831	     27.33440497	     27.33440497	     -0.23236747	     -1.85775132	      1.98857089	      7.77387993	     -4.69909014	    -13.29379273	     15.66660373	     15.66660373	     14.01832784	    -10.36347766	     -6.99119689	    -13.64039772	      2.24921284	      2.72142973	     -3.10926389	    -17.51656020	    -16.92033703	     20.59983545	     47.99163199	      0.00000000	      0.00000000	     18.02088845	    -16.60887332	     -8.37496200	     73.68205816	     47.53287230	      0.00000000	      0.00000000
     51.75728571	     -6.31114076	     -3.27840711	     -6.59957734	      1.05611035	      0.92723889	      0.43290221	     35.59300085	     -4.17588448	     -8.02018022	     22.83904342	     22.83904342	     -0.11682291	      0.12056573	      3.08207250	      6.96623032	     -4.44509727	    -13.54101011	     15.13460687	     15.13460687	     14.33185724	     -9.97774491	     -7.18443959	    -13.38642348	      2.11186956	      2.79849611	     -4.18089022	    -17.58057754	    -17.04579584	     20.32017020	     47.99957324	      0.00000000	      0.00000000	     18.35378593	    -16.58833996	     -8.48496745	     74.85422584	     47.56667409	      0.00000000	      0.00000000
     51.76892857	     -6.15870426	     -2.98418132	     -6.58041491	      1.05775899	      0.92606224	      0.43410372	     34.51404081	     -4.36368770	     -9.31579355	     19.26481550	     19.26481550	      1.44964168	      3.18125117	      7.47407770	      5.77467696	     -4.10003088	    -14.06885832	     14.46953852	     14.46953852	     14.61239615	     -8.98682381	     -7.87212840	    -13.57837246	      1.82353868	      2.61990994	     -5.84057374	    -17.62829386	    -17.59334239	     21.90633529	     47.90145073	      0.00000000	      0.00000000	     17.71857788	    -16.83315727	     -8.73299401	     78.39592554	     47.67534844	      0.00000000	      0.00000000
     51.78057143	     -6.15420880	     -2.67217287	     -6.51474258	      1.05954430	      0.92445902	      0.43557822	     33.45925732	     -4.34837018	    -10.07283355	     15.71944909	     15.71944909	      1.74603430	      4.70435084	      8.72617144	      4.80865586	     -3.73469980	    -14.23705200	     13.92587578	     13.92587578	     14.98062994	     -8.48695591	     -8.08319704	    -13.37599054	      1.52902019	      2.67079473	     -6.93797442	    -17.56114725	    -17.59692443	     21.77642322	     47.88626181	      0.00000000	      0.00000000	     17.98925563	    -16.71342324	     -8.73252925	     79.43822718	     47.70047479	      0.00000000	      0.00000000
     51.79221429	     -6.04140977	     -2.38178812	     -6.40502857	      1.06159936	      0.92285984	      0.43714846	     32.39447982	     -4.38261845	    -11.02699297	     12.85694649	     12.85694649	      2.24518238	      6.27471908	     10.19657435	      3.66960807	     -3.39314294	    -14.48258024	     13.31078645	     13.31078645	     15.36510369	     -7.76511168	     -8.34859079	    -13.32327734	      1.24678246	      2.73691782	     -8.14912927	    -17.44299947	    -17.60389006	     22.01585264	     47.85029509	      0.00000000	      0.00000000	     18.06557610	    -16.63089847	     -8.62980458	     80.88682788	     47.72451473	      0.00000000	      0.00000000
     51.80385714	     -5.91325314	     -2.15924199	     -6.21377231	      1.06367486	      0.92119985	      0.43876510	     31.73094192	     -4.52733985	    -12.23058604	     11.37966713	     11.37966713	      4.41512291	      7.79465975	     15.97303465	      2.61881348	     -3.20615290	    -14.89924930	     12.92691563	     12.92691563	     15.88072325	     -6.60128555	     -8.74446902	    -13.40838489	      1.07109162	      2.61276700	    -10.53855289	    -17.38128544	    -16.80893207	     25.75474527	     47.48846244	      0.00000000	      0.00000000	     17.51699661	    -16.85246378	     -8.34049875	     83.58329424	     47.79948082	      0.00000000	      0.00000000
     51.81550000	     -5.85154539	     -1.93836657	     -5.99349084	      1.06589081	      0.91935006	      0.44057100	     30.96019322	     -4.55605280	    -12.98228276	      9.87118074	      9.87118074	      4.56450964	      8.36443626	     16.32690356	      1.61302106	     -2.98570976	    -14.92438501	     12.47658538	     12.47658538	     16.32297768	     -6.00482650	     -8.85708539	    -13.24872316	      0.88584509	      2.62360910	    -11.57587279	    -17.20054614	    -16.59038537	     25.84644499	     47.44104156	      0.00000000	      0.00000000	     17.53388460	    -16.69375190	     -8.14613253	     84.46860596	     47.81168853	      0.00000000	      0.00000000
     51.82714286	     -5.91467111	     -1.70450372	     -5.66489797	      1.06797571	      0.91724298	      0.44247340	     30.59003973	     -4.69148830	    -13.52259180	      9.26083006	      9.26083006	      4.61973344	      8.30233799	     16.36576148	      0.93293466	     -2.82899085	    -14.74466198	     12.35637170	     12.35637170	     16.75714541	     -5.64982538	     -9.01410435	    -12.94548932	      0.69163715	      2.38141474	    -12.38797552	    -16.90201666	    -16.52233400	     25.84920863	     47.42121947	      0.00000000	      0.00000000	     17.45447196	    -16.66704964	     -8.05950429	     84.93525180	     47.81718911	      0.00000000	      0.00000000
     51.83878571	     -5.80183978	     -1.65008250	     -5.41708336	      1.07032526	      0.91545583	      0.44469418	     29.83155912	     -4.62625187	    -14.10647834	      8.64727851	      8.64727851	      3.78299785	      8.51570613	     14.40688468	      0.03576221	     -2.96964542	    -15.27959966	     12.36464021	     12.36464021	     17.74359143	     -4.07336168	     -8.52384989	    -12.97956108	      0.66896456	      2.29612788	    -14.14808093	    -16.74423312	    -15.67758736	     28.96321832	     47.14000370	      0.00000000	      0.00000000	     16.76331281	    -16.95212146	     -7.33673354	     87.20814216	     47.84645609	      0.00000000	      0.00000000
     51.85042857	     -5.89310692	     -1.59294151	     -5.09393450	      1.07238766	      0.91357413	      0.44695952	     29.55091603	     -4.65079620	    -14.44862328	      8.80010498	      8.80010498	      3.35748714	      8.21494936	     14.40078779	     -0.55142515	     -3.06113936	    -15.02196087	     12.38873241	     12.38873241	     18.12645594	     -3.95484813	     -8.63687719	    -12.67754740	      0.65696373	      2.09895758	    -14.54114356	    -16.46206638	    -15.61581548	     28.87961693	     47.13284529	      0.00000000	      0.00000000	     16.62949973	    -16.81103219	     -7.28345805	     87.26244392	     47.84441845	      0.00000000	      0.00000000
